<svg width="24" height="24" viewBox="0 0 24 24" fill="none" xmlns="http://www.w3.org/2000/svg">
<g id="Group">
<path id="Vector" d="M12 0C5.37346 0 0 5.37252 0 12C0 17.3021 3.43837 21.8002 8.20639 23.3869C8.80609 23.498 9.02632 23.1266 9.02632 22.8096C9.02632 22.5235 9.01512 21.5782 9.01004 20.5755C5.67152 21.3014 4.96707 19.1596 4.96707 19.1596C4.42121 17.7725 3.6347 17.4038 3.6347 17.4038C2.54598 16.659 3.71676 16.6742 3.71676 16.6742C4.9218 16.7589 5.55632 17.9109 5.55632 17.9109C6.62659 19.7455 8.36356 19.215 9.04834 18.9085C9.15601 18.1328 9.46705 17.6035 9.81019 17.3039C7.14488 17.0003 4.34291 15.9714 4.34291 11.3733C4.34291 10.0633 4.81169 8.99272 5.57938 8.15237C5.45477 7.85008 5.04406 6.6296 5.69561 4.97667C5.69561 4.97667 6.70329 4.65414 8.99648 6.20675C9.95363 5.94078 10.9802 5.80751 12 5.803C13.0199 5.80751 14.0472 5.94078 15.0062 6.20675C17.2967 4.65414 18.303 4.97667 18.303 4.97667C18.9561 6.6296 18.5452 7.85008 18.4206 8.15237C19.19 8.99272 19.6556 10.0632 19.6556 11.3733C19.6556 15.9823 16.8483 16.9972 14.1763 17.2943C14.6066 17.6667 14.9902 18.397 14.9902 19.5165C14.9902 21.1221 14.9762 22.4144 14.9762 22.8096C14.9762 23.129 15.1922 23.5032 15.8006 23.3853C20.566 21.7968 24 17.3003 24 12C24 5.37252 18.6273 0 12 0Z" fill="white"/>
<path id="Vector_2" d="M4.4945 17.0944C4.46815 17.1539 4.37422 17.1718 4.28886 17.131C4.20181 17.0918 4.15287 17.0105 4.1811 16.9506C4.20698 16.8893 4.30091 16.8722 4.38778 16.9134C4.47502 16.9524 4.52471 17.0345 4.4945 17.0944ZM5.08479 17.621C5.02756 17.6741 4.91566 17.6494 4.83971 17.5656C4.76122 17.4819 4.74654 17.3701 4.80461 17.3162C4.86362 17.2632 4.97213 17.288 5.05081 17.3717C5.1293 17.4563 5.14455 17.5675 5.08469 17.6211M5.48976 18.2949C5.41616 18.346 5.29588 18.2981 5.22163 18.1914C5.14813 18.0847 5.14813 17.9567 5.22323 17.9054C5.29777 17.8541 5.41616 17.9003 5.49145 18.0061C5.56486 18.1147 5.56486 18.2426 5.48967 18.295M6.17454 19.0754C6.10875 19.1478 5.96871 19.1285 5.86612 19.0294C5.76128 18.9327 5.73201 18.7954 5.79798 18.7228C5.86452 18.6502 6.00541 18.6706 6.10875 18.7687C6.21293 18.8653 6.24465 19.0037 6.17454 19.0754ZM7.05959 19.3389C7.03069 19.4328 6.89573 19.4755 6.75983 19.4356C6.62412 19.3945 6.53528 19.2844 6.56266 19.1894C6.5909 19.0949 6.72642 19.0503 6.86336 19.0931C6.99888 19.134 7.08782 19.2433 7.05959 19.3389ZM8.06699 19.4506C8.07037 19.5496 7.95509 19.6317 7.81241 19.6335C7.66888 19.6366 7.55284 19.5565 7.55133 19.4592C7.55133 19.3592 7.66399 19.2779 7.80742 19.2756C7.9501 19.2727 8.06699 19.3523 8.06699 19.4506ZM9.0565 19.4127C9.07363 19.5092 8.97444 19.6084 8.83279 19.6348C8.69351 19.6602 8.56457 19.6006 8.54678 19.5049C8.52946 19.4059 8.63054 19.3068 8.76955 19.2811C8.91147 19.2564 9.03843 19.3145 9.0565 19.4127Z" fill="white"/>
</g>
</svg>
