<svg width="24" height="24" viewBox="0 0 24 24" fill="none" xmlns="http://www.w3.org/2000/svg">
<path id="Vector" d="M12 0C5.37253 0 0 5.37254 0 12C0 18.6275 5.37253 24 12 24C18.6274 24 24 18.6275 24 12C24 5.37254 18.6273 0 12 0ZM8.79836 17.8015H6.16364V9.28941H8.79836V17.8015ZM7.46845 8.1747C6.60798 8.1747 5.91041 7.47145 5.91041 6.60409C5.91041 5.73662 6.60807 5.03342 7.46845 5.03342C8.32882 5.03342 9.02638 5.73662 9.02638 6.60409C9.02643 7.4715 8.32887 8.1747 7.46845 8.1747ZM18.672 17.8015H16.05V13.3333C16.05 12.1079 15.5845 11.4238 14.6155 11.4238C13.5609 11.4238 13.01 12.1363 13.01 13.3333V17.8015H10.483V9.28941H13.01V10.4358C13.01 10.4358 13.7701 9.02977 15.575 9.02977C17.3799 9.02977 18.672 10.1319 18.672 12.4118L18.672 17.8015Z" fill="url(#paint0_linear_16_75)"/>
<defs>
<linearGradient id="paint0_linear_16_75" x1="3.51471" y1="3.51471" x2="20.4853" y2="20.4853" gradientUnits="userSpaceOnUse">
<stop stop-color="#FBF9FA"/>
<stop offset="1" stop-color="white"/>
</linearGradient>
</defs>
</svg>
